<?xml version="1.0" ?><!DOCTYPE svg  PUBLIC '-//W3C//DTD SVG 1.1//EN'  'http://www.w3.org/Graphics/SVG/1.1/DTD/svg11.dtd'><svg height="512px" style="shape-rendering:geometricPrecision; text-rendering:geometricPrecision; image-rendering:optimizeQuality; fill-rule:evenodd; clip-rule:evenodd" version="1.1" viewBox="0 0 512 512" width="512px" xml:space="preserve" xmlns="http://www.w3.org/2000/svg" xmlns:xlink="http://www.w3.org/1999/xlink"><defs><style type="text/css">
   <![CDATA[
    .str5 {stroke:white;stroke-width:31.9998;stroke-linecap:round;stroke-linejoin:round}
    .str2 {stroke:white;stroke-width:31.9998;stroke-linecap:round;stroke-linejoin:round}
    .str1 {stroke:white;stroke-width:31.9998;stroke-linecap:round;stroke-linejoin:round}
    .str0 {stroke:white;stroke-width:31.9998;stroke-linecap:round;stroke-linejoin:round}
    .str6 {stroke:white;stroke-width:31.9998;stroke-linecap:round;stroke-linejoin:round}
    .str7 {stroke:white;stroke-width:31.9998;stroke-linecap:round;stroke-linejoin:round}
    .str3 {stroke:white;stroke-width:31.9998;stroke-linecap:round;stroke-linejoin:round}
    .str4 {stroke:white;stroke-width:31.9998;stroke-linecap:round;stroke-linejoin:round}
    .fil0 {fill:none}
    .fil1 {fill:white;fill-rule:nonzero}
   ]]>
  </style></defs><g id="Layer_x0020_1"><g id="_14360703776"><path class="fil0 str0" d="M229 162c13,-39 49,-66 91,-66 53,0 96,43 96,96 0,19 -5,36 -15,51"/><g><path class="fil1" d="M304 16c0,-9 7,-16 16,-16 9,0 16,7 16,16l-32 0zm0 32l0 -32 32 0 0 32 -32 0zm32 0c0,9 -7,16 -16,16 -9,0 -16,-7 -16,-16l32 0z"/></g><g><path class="fil1" d="M464 208c-9,0 -16,-7 -16,-16 0,-9 7,-16 16,-16l0 32zm32 0l-32 0 0 -32 32 0 0 32zm0 -32c9,0 16,7 16,16 0,9 -7,16 -16,16l0 -32z"/></g><g><path class="fil1" d="M184 79c-6,-6 -6,-17 0,-23 6,-6 17,-6 23,0l-23 23zm23 22l-23 -22 23 -23 22 23 -22 22zm22 -22c7,6 7,16 0,22 -6,7 -16,7 -22,0l22 -22z"/></g><g><path class="fil1" d="M456 79l-23 -23c6,-6 17,-6 23,0 6,6 6,17 0,23zm-23 22l-22 -22 22 -23 23 23 -23 22zm-22 -22l22 22c-6,7 -16,7 -22,0 -7,-6 -7,-16 0,-22z"/></g><path class="fil0 str1" d="M62 393c-28,-26 -46,-63 -46,-105 0,-80 64,-144 144,-144 52,0 98,28 124,70 11,-4 23,-6 36,-6 62,0 112,50 112,112 0,44 -25,82 -62,100"/><line class="fil0 str1" x1="176" x2="240" y1="496" y2="352"/><line class="fil0 str1" x1="272" x2="336" y1="496" y2="352"/><line class="fil0 str2" x1="96" x2="96" y1="448" y2="496"/><line class="fil0 str2" x1="96" x2="96" y1="448" y2="496"/><line class="fil0 str3" x1="75" x2="117" y1="460" y2="484"/><line class="fil0 str4" x1="75" x2="117" y1="484" y2="460"/><line class="fil0 str5" x1="144" x2="144" y1="352" y2="400"/><line class="fil0 str5" x1="144" x2="144" y1="352" y2="400"/><line class="fil0 str6" x1="123" x2="165" y1="364" y2="388"/><line class="fil0 str7" x1="123" x2="165" y1="388" y2="364"/></g></g></svg>
